<svg width="62" height="62" viewBox="0 0 62 62" fill="none" xmlns="http://www.w3.org/2000/svg">
<path fill-rule="evenodd" clip-rule="evenodd" d="M27.9206 15.6025H39.151C39.8574 15.6025 40.4368 16.182 40.4368 16.8883V18.835C40.4368 19.5413 39.8574 20.1208 39.151 20.1208H35.8372V21.7581H31.2344V20.1208H27.9206C27.2142 20.1208 26.6348 19.5413 26.6348 18.835V16.8883C26.6348 16.182 27.2142 15.6025 27.9206 15.6025Z" fill="#4DB113"/>
<circle cx="31" cy="31" r="31" fill="#2D2D2D"/>
<path fill-rule="evenodd" clip-rule="evenodd" d="M25.1862 45.6156L21.3841 41.8167H18.7669C17.8522 41.8167 17.1035 41.068 17.1035 40.1533V37.3213H15.5182V40.6351C15.5182 41.3415 14.9388 41.9209 14.2324 41.9209H12.2858C11.5794 41.9209 11 41.3415 11 40.6351V29.4046C11 28.6982 11.5794 28.1188 12.2858 28.1188H14.2324C14.9388 28.1188 15.5182 28.6982 15.5182 29.4046V32.7184H17.1035V29.6716C17.1035 28.7568 17.8522 28.0081 18.7669 28.0081H21.5469L25.4759 23.8317C25.9316 23.4346 26.5371 23.2946 27.2435 23.3239H43.4316C43.9915 23.3857 44.418 23.6006 44.6784 24.0042C44.9388 24.4014 44.8965 24.626 44.8965 25.0719V32.7184H46.4818V29.4046C46.4818 28.6982 47.0612 28.1188 47.7676 28.1188H49.7142C50.4206 28.1188 51 28.6982 51 29.4046V40.6351C51 41.3415 50.4206 41.9209 49.7142 41.9209H47.7676C47.0612 41.9209 46.4818 41.3415 46.4818 40.6351V37.3213H44.8965V37.6208C44.8965 38.5094 44.9225 39.0466 44.3561 39.7822C44.2487 39.9222 44.1283 40.0557 43.9948 40.1794L38.1908 45.863C37.901 46.1852 37.4616 46.361 36.8822 46.3936H26.9863C26.2474 46.361 25.6452 46.1071 25.1862 45.6156ZM31.7389 35.7132L27.6243 35.3258L31.0358 27.8519H35.7005L33.054 32.139L37.8132 32.6663L29.0762 43.1546L31.7389 35.7132ZM27.9206 15.6025H39.151C39.8574 15.6025 40.4368 16.182 40.4368 16.8883V18.835C40.4368 19.5413 39.8574 20.1208 39.151 20.1208H35.8372V21.7581H31.2344V20.1208H27.9206C27.2142 20.1208 26.6348 19.5413 26.6348 18.835V16.8883C26.6348 16.182 27.2142 15.6025 27.9206 15.6025Z" fill="#4DB113"/>
</svg>
