<svg width="62" height="62" viewBox="0 0 62 62" fill="none" xmlns="http://www.w3.org/2000/svg">
<circle cx="31" cy="31" r="31" fill="#2D2D2D"/>
<path fill-rule="evenodd" clip-rule="evenodd" d="M41.4545 18.9304C42.4524 20.143 44.1068 23.1723 44.4555 24.2886C44.7265 25.1559 45.1877 25.208 45.452 25.0686C45.806 24.8815 45.5818 24.0811 45.7858 23.7181C46.0406 23.2653 48.4965 23.5695 48.6737 24.6332C48.9924 26.5458 46.2418 26.3823 46.1389 26.0732C46.0929 25.9356 44.9568 25.6168 45.4311 26.3519C47.5846 29.691 47.5241 32.0462 46.8891 35.9088C46.6458 37.389 46.9801 43.3819 46.6964 43.5745C46.4123 43.7671 43.2692 44.1221 43.1474 43.5035C43.0619 43.069 43.1163 41.8339 43.1004 41.141C43.0848 40.4743 43.0654 40.656 42.3449 40.6496C38.8668 40.6188 23.1466 40.4559 20.178 40.6292C19.6267 40.6614 19.6797 40.5858 19.6735 41.0899C19.667 41.6157 19.6858 42.5039 19.6634 43.036C19.6278 43.8894 18.5525 43.8886 17.8076 43.8886C16.8849 43.8886 16.0331 43.7161 15.9318 43.3613C15.8528 43.0847 15.9214 39.1882 15.9557 37.4808C16.0186 34.3411 15.0381 32.2198 16.0234 29.3928C16.3802 28.3688 16.946 27.4237 17.3892 26.4131C17.6544 25.8082 17.7695 25.8408 17.1763 25.8567C16.9179 25.8638 16.6414 25.8899 16.6414 25.971C16.6414 26.123 16.6312 26.2653 16.0331 26.2447C13.247 26.1503 13.5545 23.7917 15.5665 23.6389C16.3676 23.578 17.128 23.6389 17.128 24.0747C17.128 24.5108 17.0569 24.9976 17.2193 25.0382C17.3815 25.0785 18.0001 25.1697 18.0913 24.8656C18.1825 24.5613 20.5451 19.6539 21.4173 18.7614C22.5892 17.5622 36.7496 18.0581 40.2544 18.3846C40.9704 18.4512 41.0035 18.3821 41.4545 18.9304Z" fill="black"/>
<path fill-rule="evenodd" clip-rule="evenodd" d="M43.0756 25.4238C42.6809 25.4238 22.6379 25.4499 19.6001 25.3163C19.2364 25.3002 18.9432 25.2133 18.9602 24.9027C18.9831 24.4789 20.6148 20.6576 20.8693 20.2524C21.4169 19.3804 21.9645 19.0556 22.9379 19.0355C25.3663 18.9849 40.2861 18.4674 41.1669 19.4306C42.0866 20.4363 43.4045 23.3021 43.7296 24.4418C43.8756 24.9544 43.6794 25.4238 43.0756 25.4238Z" fill="#434343"/>
<path fill-rule="evenodd" clip-rule="evenodd" d="M20.8791 30.614C21.9235 31.5471 23.0998 32.9463 22.9984 33.1794C22.8044 33.6256 18.8507 32.4339 18.0399 32.3989C16.3594 32.3257 16.0484 29.5839 16.7723 28.9712C17.583 28.2854 20.303 30.0997 20.8791 30.614Z" fill="#434343"/>
<path fill-rule="evenodd" clip-rule="evenodd" d="M39.9719 33.1586C40.2357 33.5443 42.3548 32.9255 43.4907 32.6518C43.8907 32.5557 44.2816 32.6504 44.5875 32.5337C47.8436 31.2918 46.0505 28.8493 45.6505 28.8391C44.369 28.8072 39.3639 32.2702 39.9719 33.1586Z" fill="#434343"/>
<path fill-rule="evenodd" clip-rule="evenodd" d="M26.3079 34.4265C28.4485 34.4545 37.1123 34.5659 37.4878 34.3095C37.9034 34.0258 40.3369 31.6275 40.3167 31.3032C40.2788 30.6969 39.6495 30.7776 39.2363 30.7736C36.5692 30.7482 26.1599 30.7464 23.4585 30.8055C22.996 30.8158 22.2089 30.8632 22.6429 31.6477C23.1798 32.6184 25.1127 34.411 26.3079 34.4265Z" fill="#A1A1A1"/>
<path fill-rule="evenodd" clip-rule="evenodd" d="M22.4585 31.6574H40.4363V31.3535H22.4585V31.6574Z" fill="black"/>
<path fill-rule="evenodd" clip-rule="evenodd" d="M22.7935 32.3266H40.0416V32.0225H22.7935V32.3266Z" fill="black"/>
<path fill-rule="evenodd" clip-rule="evenodd" d="M23.3105 32.8344H39.6155V32.5303H23.3105V32.8344Z" fill="black"/>
<path fill-rule="evenodd" clip-rule="evenodd" d="M23.7769 33.4029H39.0172V33.0986H23.7769V33.4029Z" fill="black"/>
<path fill-rule="evenodd" clip-rule="evenodd" d="M24.3652 34.0709H38.4597V33.7666H24.3652V34.0709Z" fill="black"/>
<path fill-rule="evenodd" clip-rule="evenodd" d="M31.5373 34.1099C31.9974 34.1099 32.3705 33.4117 32.3705 32.5504C32.3705 31.6891 31.9974 30.9912 31.5373 30.9912C31.0772 30.9912 30.7041 31.6891 30.7041 32.5504C30.7041 33.4117 31.0772 34.1099 31.5373 34.1099Z" fill="#A1A1A1"/>
<path fill-rule="evenodd" clip-rule="evenodd" d="M20.1833 36.1265C21.1513 36.141 24.9107 36.2054 25.9266 36.3326C26.2185 36.3691 26.1809 36.3471 26.2075 36.6178C26.2449 37.0015 26.1438 36.9142 26.5666 36.9149C28.1457 36.9192 34.8238 36.9333 36.1439 36.8901C36.4396 36.8802 36.3746 36.9178 36.3846 36.5969C36.3943 36.2834 36.3252 36.3369 36.6202 36.3323L42.157 36.2449C42.9431 36.2326 42.9327 36.0762 42.5593 36.6838C42.186 37.2906 41.5172 38.3338 41.1369 38.6578C40.5893 39.1241 39.7376 39.6514 37.4763 39.7021C35.5133 39.7462 26.2137 39.7518 23.6561 39.653C22.0011 39.5892 20.8252 37.5675 20.0596 36.2979C19.9216 36.0691 19.8966 36.1222 20.1833 36.1265Z" fill="#A1A1A1"/>
<path fill-rule="evenodd" clip-rule="evenodd" d="M45.4964 38.6775C44.9998 39.2148 43.0731 39.5293 42.9108 39.144C42.7487 38.7586 43.0122 37.9776 43.7423 37.3289C44.4724 36.6799 45.9124 35.889 46.034 36.092C46.3705 36.6527 45.8664 38.2776 45.4964 38.6775Z" fill="#434343"/>
<path fill-rule="evenodd" clip-rule="evenodd" d="M17.8451 36.3909C18.5955 36.8571 18.9301 37.1514 19.4878 37.9423C21.0994 40.2277 17.7226 39.0416 17.5917 38.9258C16.9833 38.3883 16.3952 36.6442 16.5777 36.2487C16.7601 35.8533 17.8451 36.3909 17.8451 36.3909Z" fill="#434343"/>
<path fill-rule="evenodd" clip-rule="evenodd" d="M44.7968 38.1651C45.0011 38.1651 45.1667 37.9996 45.1667 37.7951C45.1667 37.5908 45.0011 37.4248 44.7968 37.4248C44.5923 37.4248 44.4268 37.5908 44.4268 37.7951C44.4268 37.9996 44.5923 38.1651 44.7968 38.1651Z" fill="#A1A1A1"/>
<path fill-rule="evenodd" clip-rule="evenodd" d="M17.9708 38.1277C18.1751 38.1277 18.3408 37.9622 18.3408 37.7577C18.3408 37.5532 18.1751 37.3877 17.9708 37.3877C17.7663 37.3877 17.6006 37.5532 17.6006 37.7577C17.6006 37.9622 17.7663 38.1277 17.9708 38.1277Z" fill="#A1A1A1"/>
<path d="M41.684 25.2624L39.5542 30.7773" stroke="#434343" stroke-width="0.2" stroke-miterlimit="22.9256"/>
<path d="M21.1162 25.1927L23.271 30.8105" stroke="#434343" stroke-width="0.2" stroke-miterlimit="22.9256"/>
<circle cx="53" cy="10" r="8.5" fill="white" stroke="#2176FF"/>
<path d="M53.4472 5.75684C54.019 5.75684 54.5444 5.90296 55.0237 6.19521C55.5113 6.47886 55.8939 6.86995 56.1713 7.36849C56.4572 7.85844 56.6001 8.39566 56.6001 8.98015C56.6001 9.56464 56.4572 10.1062 56.1713 10.6047C55.8939 11.0946 55.5113 11.4857 55.0237 11.778C54.5444 12.0616 54.019 12.2035 53.4472 12.2035H51.9717V14.9368H50.0547V5.75684H53.4472ZM53.3211 10.4113C53.6911 10.4113 54.0105 10.2738 54.2796 9.99872C54.5571 9.71507 54.6958 9.37554 54.6958 8.98015C54.6958 8.59335 54.5571 8.25813 54.2796 7.97448C54.0105 7.69082 53.6911 7.549 53.3211 7.549H51.9717V10.4113H53.3211Z" fill="#2176FF"/>
</svg>
