<svg width="63" height="62" viewBox="0 0 63 62" fill="none" xmlns="http://www.w3.org/2000/svg">
<circle cx="31" cy="31" r="31" fill="#2D2D2D"/>
<path fill-rule="evenodd" clip-rule="evenodd" d="M17.4785 27.3317C19.5844 26.1202 24.3213 23.5121 26.9809 22.96C30.4721 22.2351 34.9397 21.8059 39.7919 22.087C44.053 22.3338 49.9228 23.1568 51.2895 23.4989C52.0313 23.6845 51.1272 23.903 51.3601 24.1359C51.4739 24.2497 54.2189 26.4528 55.3748 27.6749C56.6124 28.9839 55.5771 31.1876 56.0793 31.784C58.0341 34.105 56.7896 37.6572 53.1668 37.6944C52.5762 37.7006 52.762 37.7638 52.7461 37.1793C52.6945 35.2637 51.6458 33.2637 50.0453 32.3991C48.4904 31.5589 45.9642 32.0651 44.5775 33.3538C43.4884 34.3657 43.1929 36.1009 43.1498 37.5233C43.1203 38.4997 43.2976 38.4036 42.9056 38.4406C42.5409 38.4748 21.2371 38.5348 18.2689 38.5431C17.8359 38.5441 17.9241 38.6333 17.9606 38.251C18.0302 37.5244 18.1282 35.6034 17.4093 34.2835C16.1918 32.0483 13.1886 31.345 10.9986 32.3404C9.34827 33.0906 8.47418 34.6134 8.27412 36.3692C8.2052 36.974 8.24337 37.4639 8.29608 37.7959C8.38864 38.3776 8.57395 38.2831 8.0316 38.269C7.01392 38.2419 4.22611 38.1447 3.40473 37.8719C2.88329 37.6989 3.06526 36.8183 3.34051 36.495C3.58659 36.2056 3.81197 35.3012 3.21366 35.0795C3.10102 35.0377 2.99623 34.9084 3.0001 34.5421C3.05323 29.5009 11.3239 28.4693 15.103 28.0913C16.7082 27.931 16.1334 28.1055 17.4785 27.3317Z" fill="black"/>
<path fill-rule="evenodd" clip-rule="evenodd" d="M4.35334 32.7893C5.83117 32.959 9.40345 31.381 9.42739 30.1781C9.4366 29.7157 6.471 30.3553 5.05476 31.0793C4.57756 31.3231 3.47852 32.4615 3.47852 32.902C3.47852 33.1335 3.95729 32.7438 4.35334 32.7893Z" fill="#434343"/>
<path fill-rule="evenodd" clip-rule="evenodd" d="M18.2195 27.4722C19.0646 26.9737 20.9248 25.8988 22.2766 25.2104C23.8743 24.3968 26.1452 23.4276 26.3189 23.3945C26.4927 23.361 26.3336 23.1872 26.071 23.2649C25.8086 23.3425 23.7116 24.1376 22.3913 24.8107C21.0709 25.4838 16.8695 27.688 16.8991 27.7991C16.9552 28.0092 17.9791 27.6138 18.2195 27.4722Z" fill="#434343"/>
<path fill-rule="evenodd" clip-rule="evenodd" d="M21.5563 26.5346C23.8364 24.9418 26.7394 23.689 29.6006 23.2134C30.5596 23.0542 32.5493 22.8796 33.5416 22.9738C33.7484 22.9934 33.745 22.8868 33.6633 23.1808L32.4428 27.5745C32.3705 27.8352 32.439 27.783 32.1735 27.8047C30.7526 27.9198 22.6051 28.5755 22.6051 28.4607C22.6051 28.3348 22.6717 27.0625 22.4202 26.9592C21.7427 26.6803 20.9064 26.9887 21.5563 26.5346Z" fill="#434343"/>
<path d="M19.4486 28.8202C19.5596 28.8202 21.6398 28.8274 21.44 28.7313C21.2404 28.6352 20.5303 28.7979 20.3528 28.3024C20.1752 27.8068 20.7817 27.3113 20.8261 27.1632C20.8705 27.0154 20.5895 27.0486 20.4526 27.2186C20.2871 27.4242 19.2112 28.8202 19.4486 28.8202Z" stroke="#232222" stroke-width="0.2" stroke-miterlimit="22.9256"/>
<path fill-rule="evenodd" clip-rule="evenodd" d="M19.4486 28.8201C19.5596 28.8201 21.6398 28.8273 21.44 28.7312C21.2404 28.6351 20.5303 28.7978 20.3528 28.3023C20.1752 27.8067 20.7817 27.3112 20.8261 27.1631C20.8705 27.0153 20.5895 27.0485 20.4526 27.2185C20.2871 27.4241 19.2112 28.8201 19.4486 28.8201Z" fill="#434343"/>
<path fill-rule="evenodd" clip-rule="evenodd" d="M35.5317 22.9902C36.8963 23.0076 43.844 23.1212 43.7774 23.6012C43.7188 24.0231 43.4283 26.1387 43.3099 27.0003C43.2449 27.4733 43.3568 27.3611 42.8527 27.3885C41.3427 27.4701 36.0947 27.7472 35.0364 27.7098C34.7955 27.7012 34.8429 27.7137 34.8624 27.4704C34.9261 26.6749 35.2048 23.931 35.2814 23.1792C35.3071 22.9267 35.25 22.9865 35.5317 22.9902Z" fill="#434343"/>
<path fill-rule="evenodd" clip-rule="evenodd" d="M44.5338 23.571C45.1032 23.5854 46.0962 23.6729 46.1592 24.104C46.3457 25.3785 46.2536 26.7029 45.2326 27.1743C44.755 27.395 44.3115 27.3513 43.8085 27.3384C43.6621 27.3347 43.6851 27.3676 43.7017 27.2301L44.11 23.8227C44.1507 23.4816 44.1081 23.5603 44.5338 23.571Z" fill="#434343"/>
<path fill-rule="evenodd" clip-rule="evenodd" d="M49.6165 24.4445C50.4609 25.1216 53.127 27.25 53.2825 27.2656C53.4673 27.284 54.8246 27.3727 54.8246 27.3135C54.8246 27.2543 53.434 26.034 53.434 26.034C53.434 26.034 51.7543 24.6201 51.2879 24.2451C51.1177 24.1083 51.1283 24.1462 50.8877 24.1551C50.5348 24.1677 49.9405 24.2036 49.6074 24.2247C49.2679 24.2458 49.3108 24.1993 49.6165 24.4445Z" fill="#434343"/>
<path fill-rule="evenodd" clip-rule="evenodd" d="M51.9103 29.8095C52.9301 26.7886 55.6317 27.8545 55.7712 28.4235C55.851 28.7482 55.8646 29.6212 55.867 29.9111C55.8682 30.0338 55.8928 30.0055 55.7651 30.0099C55.2895 30.0268 53.2961 30.097 52.6723 30.1098C52.351 30.1165 52.148 30.1079 52.0217 30.097C51.7559 30.0731 51.8156 30.0901 51.9103 29.8095Z" fill="#434343"/>
<path fill-rule="evenodd" clip-rule="evenodd" d="M53.627 28.5346C54.1311 28.447 55.1667 28.4334 55.3276 28.6599C55.5274 28.941 55.4237 29.5104 55.2167 29.5104C55.0096 29.5104 52.9754 29.6657 52.9311 29.4588C52.886 29.2483 53.242 28.6012 53.627 28.5346Z" fill="#A1A1A1"/>
<path d="M45.5818 26.9724C46.4146 27.7268 44.4305 34.6376 40.8444 36.7578C40.1881 37.1457 39.4781 37.3733 38.7221 37.3733C37.0059 37.3733 18.0029 37.5781 18.0029 37.5781" stroke="#434343" stroke-width="0.2" stroke-miterlimit="22.9256"/>
<path d="M34.602 22.7055C33.4831 28.2161 32.6762 31.6572 33.0341 37.4219" stroke="#434343" stroke-width="0.2" stroke-miterlimit="22.9256"/>
<path d="M19.1295 29.061C17.7894 31.0087 18.9765 35.4042 19.5418 37.5615" stroke="#434343" stroke-width="0.2" stroke-miterlimit="22.9256"/>
<path d="M10.0153 32.8535L8.05273 31.641" stroke="#434343" stroke-width="0.2" stroke-miterlimit="22.9256"/>
<path d="M9.42725 30.1777L19.1134 29.0809" stroke="#434343" stroke-width="0.2" stroke-miterlimit="22.9256"/>
<path d="M16.0659 29.3838L16.9369 27.8238" stroke="#434343" stroke-width="0.2" stroke-miterlimit="22.9256"/>
<path fill-rule="evenodd" clip-rule="evenodd" d="M42.5715 29.0879C43.4275 29.0879 44.1212 29.2502 44.1212 29.4505C44.1212 29.6507 43.4275 29.813 42.5715 29.813C41.7159 29.813 41.022 29.6507 41.022 29.4505C41.022 29.2502 41.7159 29.0879 42.5715 29.0879Z" fill="#434343"/>
<path fill-rule="evenodd" clip-rule="evenodd" d="M30.7888 29.7764C31.6445 29.7764 32.3384 29.9387 32.3384 30.1386C32.3384 30.3389 31.6445 30.5011 30.7888 30.5011C29.9329 30.5011 29.2393 30.3389 29.2393 30.1386C29.2393 29.9387 29.9329 29.7764 30.7888 29.7764Z" fill="#434343"/>
<path fill-rule="evenodd" clip-rule="evenodd" d="M3.54697 36.9026C3.73228 35.7707 6.43957 34.5956 6.66421 35.0347C6.79075 35.2821 6.30037 36.4705 5.98538 37.0028C5.80968 37.2999 5.8215 37.2705 5.50253 37.2681C5.07625 37.2649 4.28301 37.2352 3.85308 37.2218C3.5546 37.2124 3.48296 37.293 3.54697 36.9026Z" fill="#A1A1A1"/>
<path fill-rule="evenodd" clip-rule="evenodd" d="M3.79965 35.0451C4.08097 34.9867 4.59698 34.8785 4.57491 34.931C4.54531 35.0011 3.60231 36.2066 3.60597 36.1069C3.60879 36.0316 3.61789 35.4868 3.62218 35.2222C3.62532 35.0314 3.59101 35.0881 3.79965 35.0451Z" fill="#A1A1A1"/>
<path fill-rule="evenodd" clip-rule="evenodd" d="M43.7328 36.7469C43.7633 39.0485 45.6543 40.8895 47.9559 40.8589C50.2576 40.8284 52.0984 38.9377 52.0679 36.6358C52.0375 34.3341 50.1467 32.4933 47.8451 32.5238C45.5432 32.5542 43.7023 34.445 43.7328 36.7469Z" fill="black"/>
<path fill-rule="evenodd" clip-rule="evenodd" d="M45.2283 36.7266C45.2478 38.2026 46.4601 39.383 47.9358 39.3632C49.4118 39.3436 50.5922 38.1313 50.5727 36.6557C50.5528 35.1796 49.3406 33.9992 47.8649 34.0188C46.3891 34.0387 45.2085 35.2509 45.2283 36.7266Z" fill="#434343"/>
<path fill-rule="evenodd" clip-rule="evenodd" d="M50.1851 37.2026C49.8333 37.1034 48.9431 36.8716 48.9986 37.0809C49.0676 37.3414 49.7786 37.9696 49.9586 37.9671C50.0817 37.9656 50.2082 37.6258 50.2756 37.4125C50.3396 37.2089 50.3655 37.2534 50.1851 37.2026Z" fill="black"/>
<path fill-rule="evenodd" clip-rule="evenodd" d="M49.1593 38.6081C48.9633 38.2997 48.4552 37.5332 48.3566 37.726C48.2341 37.9661 48.3449 38.9085 48.4807 39.0266C48.5732 39.1077 48.8943 38.939 49.0867 38.8247C49.2702 38.7161 49.26 38.7667 49.1593 38.6081Z" fill="black"/>
<path fill-rule="evenodd" clip-rule="evenodd" d="M47.492 38.9141C47.5464 38.5527 47.6655 37.6408 47.4647 37.7219C47.2147 37.8226 46.6802 38.6067 46.7049 38.7848C46.722 38.9069 47.0748 38.9899 47.295 39.0301C47.5049 39.0683 47.4639 39.0996 47.492 38.9141Z" fill="black"/>
<path fill-rule="evenodd" clip-rule="evenodd" d="M45.9703 37.9782C46.2757 37.7774 47.0339 37.2569 46.8396 37.1616C46.5976 37.0427 45.657 37.1689 45.5412 37.3062C45.4616 37.4002 45.6354 37.7185 45.7526 37.9091C45.8643 38.0906 45.8137 38.0813 45.9703 37.9782Z" fill="black"/>
<path fill-rule="evenodd" clip-rule="evenodd" d="M45.624 36.2384C45.9859 36.2893 46.8992 36.3988 46.8159 36.1988C46.7125 35.9498 45.9231 35.4234 45.7453 35.4502C45.6234 35.4684 45.544 35.8221 45.5062 36.0428C45.47 36.2529 45.4382 36.2125 45.624 36.2384Z" fill="black"/>
<path fill-rule="evenodd" clip-rule="evenodd" d="M46.6367 34.8065C46.8439 35.1077 47.3801 35.8549 47.4714 35.6587C47.585 35.4142 47.4396 34.4766 47.2998 34.3634C47.204 34.2861 46.8896 34.4662 46.7015 34.5875C46.5221 34.7029 46.5307 34.652 46.6367 34.8065Z" fill="black"/>
<path fill-rule="evenodd" clip-rule="evenodd" d="M48.4128 34.4436C48.3273 34.7988 48.1306 35.6974 48.3378 35.6339C48.5954 35.5549 49.195 34.8194 49.1857 34.6399C49.179 34.517 48.8347 34.4037 48.6189 34.3448C48.413 34.2888 48.4564 34.2613 48.4128 34.4436Z" fill="black"/>
<path fill-rule="evenodd" clip-rule="evenodd" d="M49.9305 35.4606C49.618 35.6504 48.8414 36.1431 49.0322 36.2454C49.2697 36.3727 50.2143 36.2809 50.335 36.1479C50.418 36.0566 50.2557 35.7326 50.1455 35.5378C50.0405 35.3519 50.0908 35.3634 49.9305 35.4606Z" fill="black"/>
<path fill-rule="evenodd" clip-rule="evenodd" d="M46.7394 36.7146C46.7482 37.3737 47.2898 37.9011 47.949 37.8924C48.6083 37.8838 49.1357 37.3422 49.127 36.6828C49.1181 36.0236 48.5764 35.4962 47.9174 35.505C47.2579 35.5136 46.7305 36.0552 46.7394 36.7146Z" fill="#434343"/>
<path fill-rule="evenodd" clip-rule="evenodd" d="M48.5792 36.8457C48.7196 36.8457 48.8334 36.7323 48.8334 36.5919C48.8334 36.4517 48.7196 36.3379 48.5792 36.3379C48.439 36.3379 48.3252 36.4517 48.3252 36.5919C48.3252 36.7323 48.439 36.8457 48.5792 36.8457Z" fill="black"/>
<path fill-rule="evenodd" clip-rule="evenodd" d="M47.2069 36.9444C47.3472 36.9444 47.461 36.8309 47.461 36.6906C47.461 36.5503 47.3472 36.4365 47.2069 36.4365C47.0666 36.4365 46.9531 36.5503 46.9531 36.6906C46.9531 36.8309 47.0666 36.9444 47.2069 36.9444Z" fill="black"/>
<path fill-rule="evenodd" clip-rule="evenodd" d="M47.8361 36.3304C47.9764 36.3304 48.0899 36.2166 48.0899 36.0764C48.0899 35.936 47.9764 35.8223 47.8361 35.8223C47.6958 35.8223 47.582 35.936 47.582 36.0764C47.582 36.2166 47.6958 36.3304 47.8361 36.3304Z" fill="black"/>
<path fill-rule="evenodd" clip-rule="evenodd" d="M47.8663 37.4142C48.0067 37.4142 48.1205 37.3006 48.1205 37.1604C48.1205 37.02 48.0067 36.9062 47.8663 36.9062C47.7261 36.9062 47.6123 37.02 47.6123 37.1604C47.6123 37.3006 47.7261 37.4142 47.8663 37.4142Z" fill="black"/>
<path fill-rule="evenodd" clip-rule="evenodd" d="M8.99989 36.7469C9.03043 39.0485 10.9213 40.8895 13.2229 40.8589C15.5246 40.8284 17.3656 38.9377 17.335 36.6358C17.3045 34.3341 15.4137 32.4933 13.112 32.5238C10.8104 32.5542 8.96925 34.445 8.99989 36.7469Z" fill="black"/>
<path fill-rule="evenodd" clip-rule="evenodd" d="M10.4954 36.7266C10.5149 38.2026 11.7272 39.383 13.2031 39.3632C14.6788 39.3436 15.8593 38.1313 15.8398 36.6557C15.8201 35.1796 14.6078 33.9992 13.1321 34.0188C11.6562 34.0387 10.4756 35.2509 10.4954 36.7266Z" fill="#434343"/>
<path fill-rule="evenodd" clip-rule="evenodd" d="M15.4521 37.2026C15.1003 37.1034 14.2103 36.8716 14.2657 37.0809C14.3346 37.3414 15.0457 37.9696 15.2256 37.9671C15.3488 37.9656 15.4752 37.6258 15.5426 37.4125C15.6067 37.2089 15.6326 37.2534 15.4521 37.2026Z" fill="black"/>
<path fill-rule="evenodd" clip-rule="evenodd" d="M14.4265 38.6081C14.2305 38.2997 13.7221 37.5332 13.6237 37.726C13.5012 37.9661 13.612 38.9085 13.7476 39.0266C13.8404 39.1077 14.1613 38.939 14.3538 38.8247C14.5374 38.7161 14.5269 38.7667 14.4265 38.6081Z" fill="black"/>
<path fill-rule="evenodd" clip-rule="evenodd" d="M12.759 38.9141C12.8135 38.5527 12.9325 37.6408 12.7316 37.7219C12.4816 37.8226 11.9472 38.6067 11.972 38.7848C11.9891 38.9069 12.3419 38.9899 12.5622 39.0301C12.772 39.0683 12.731 39.0996 12.759 38.9141Z" fill="black"/>
<path fill-rule="evenodd" clip-rule="evenodd" d="M11.2374 37.9782C11.5429 37.7774 12.3011 37.2569 12.1067 37.1616C11.8647 37.0427 10.9242 37.1689 10.8082 37.3062C10.7287 37.4002 10.9025 37.7185 11.0198 37.9091C11.1314 38.0906 11.0808 38.0813 11.2374 37.9782Z" fill="black"/>
<path fill-rule="evenodd" clip-rule="evenodd" d="M10.8912 36.2384C11.253 36.2893 12.1662 36.3988 12.0831 36.1988C11.9796 35.9498 11.1902 35.4234 11.0124 35.4502C10.8904 35.4684 10.811 35.8221 10.7731 36.0428C10.7371 36.2529 10.7054 36.2125 10.8912 36.2384Z" fill="black"/>
<path fill-rule="evenodd" clip-rule="evenodd" d="M11.904 34.8065C12.1111 35.1077 12.6472 35.8549 12.7386 35.6587C12.8523 35.4142 12.7068 34.4766 12.567 34.3634C12.4712 34.2861 12.1568 34.4662 11.9686 34.5875C11.7892 34.7029 11.7977 34.652 11.904 34.8065Z" fill="black"/>
<path fill-rule="evenodd" clip-rule="evenodd" d="M13.6802 34.4436C13.595 34.7988 13.3982 35.6974 13.6053 35.6339C13.863 35.5549 14.4626 34.8194 14.4531 34.6399C14.4466 34.517 14.1022 34.4037 13.8863 34.3448C13.6805 34.2888 13.7239 34.2613 13.6802 34.4436Z" fill="black"/>
<path fill-rule="evenodd" clip-rule="evenodd" d="M15.1976 35.4606C14.8851 35.6504 14.1085 36.1431 14.2993 36.2454C14.5368 36.3727 15.4813 36.2809 15.6021 36.1479C15.6849 36.0566 15.5228 35.7326 15.4126 35.5378C15.3076 35.3519 15.3578 35.3634 15.1976 35.4606Z" fill="black"/>
<path fill-rule="evenodd" clip-rule="evenodd" d="M12.0065 36.7146C12.0152 37.3737 12.5569 37.9011 13.2161 37.8924C13.8754 37.8838 14.4027 37.3422 14.3939 36.6828C14.3851 36.0236 13.8436 35.4962 13.1844 35.505C12.5251 35.5136 11.9977 36.0552 12.0065 36.7146Z" fill="#434343"/>
<path fill-rule="evenodd" clip-rule="evenodd" d="M13.8463 36.8457C13.9866 36.8457 14.1002 36.7323 14.1002 36.5919C14.1002 36.4517 13.9866 36.3379 13.8463 36.3379C13.706 36.3379 13.5923 36.4517 13.5923 36.5919C13.5923 36.7323 13.706 36.8457 13.8463 36.8457Z" fill="black"/>
<path fill-rule="evenodd" clip-rule="evenodd" d="M12.4738 36.9444C12.6141 36.9444 12.7278 36.8309 12.7278 36.6906C12.7278 36.5503 12.6141 36.4365 12.4738 36.4365C12.3334 36.4365 12.2197 36.5503 12.2197 36.6906C12.2197 36.8309 12.3334 36.9444 12.4738 36.9444Z" fill="black"/>
<path fill-rule="evenodd" clip-rule="evenodd" d="M13.1031 36.3304C13.2434 36.3304 13.3572 36.2166 13.3572 36.0764C13.3572 35.936 13.2434 35.8223 13.1031 35.8223C12.9629 35.8223 12.8491 35.936 12.8491 36.0764C12.8491 36.2166 12.9629 36.3304 13.1031 36.3304Z" fill="black"/>
<path fill-rule="evenodd" clip-rule="evenodd" d="M13.1334 37.4142C13.2738 37.4142 13.3874 37.3006 13.3874 37.1604C13.3874 37.02 13.2738 36.9062 13.1334 36.9062C12.9932 36.9062 12.8794 37.02 12.8794 37.1604C12.8794 37.3006 12.9932 37.4142 13.1334 37.4142Z" fill="black"/>
<path fill-rule="evenodd" clip-rule="evenodd" d="M30.841 33.9129C37.1891 33.7989 42.3409 33.9317 42.3482 34.2093C42.3552 34.4873 37.2145 34.8048 30.8664 34.9188C24.5184 35.0329 19.3664 34.9001 19.3594 34.6224C19.3524 34.3445 24.4928 34.027 30.841 33.9129Z" fill="#A1A1A1"/>
<path d="M30.841 33.9132C37.1891 33.7992 42.3409 33.932 42.3482 34.2096C42.3552 34.4876 37.2145 34.8051 30.8664 34.9191C24.5184 35.0332 19.3664 34.9003 19.3594 34.6227C19.3524 34.3448 24.4928 34.0273 30.841 33.9132Z" stroke="#A1A1A1" stroke-width="0.2" stroke-miterlimit="22.9256"/>
<circle cx="54" cy="9" r="8.5" fill="white" stroke="#02E996"/>
<path d="M54.0001 4.32031C53.291 4.32031 52.5888 4.4603 51.9336 4.73227C51.2784 5.00424 50.6832 5.40288 50.1817 5.90542C49.6803 6.40796 49.2825 7.00456 49.0111 7.66116C48.7398 8.31776 48.6001 9.02151 48.6001 9.73221C48.6023 10.3415 48.7072 10.946 48.9104 11.5203C48.8242 11.1593 48.7796 10.7896 48.7776 10.4184C48.7777 9.13305 49.2872 7.90039 50.1941 6.99152C51.1009 6.08266 52.3309 5.57204 53.6134 5.57199C54.5724 5.57293 55.5094 5.8596 56.3055 6.39558L57.2687 5.43017C56.3297 4.71185 55.1815 4.32198 54.0001 4.32031ZM58.1169 5.94547C58.0036 5.94737 57.8886 5.99159 57.7935 6.07231L53.6564 9.58158C53.4662 9.74301 53.0192 10.2184 53.6555 10.8562C54.2921 11.4941 54.7662 11.045 54.9273 10.8544L58.4298 6.71004C58.5909 6.51938 58.606 6.24898 58.4298 6.07231C58.3416 5.98397 58.2302 5.94356 58.1169 5.94547ZM58.9492 7.57238L58.0395 8.48405C58.3011 9.08084 58.4398 9.72435 58.4474 10.3761H59.3544C59.3824 10.1626 59.3977 9.94756 59.4001 9.73221C59.3994 8.98887 59.2459 8.25365 58.9492 7.57238Z" fill="#02E996"/>
</svg>
