<svg width="24" height="24" viewBox="0 0 24 24" fill="none" xmlns="http://www.w3.org/2000/svg">
<path d="M9.1499 7.49023C8.5899 7.49023 8.1499 7.94023 8.1499 8.49023C8.1499 9.04023 8.5999 9.49023 9.1499 9.49023C9.6999 9.49023 10.1499 9.04023 10.1499 8.49023C10.1499 7.94023 9.6999 7.49023 9.1499 7.49023Z" fill="#969696"/>
<path d="M21.46 5.04C20.62 3.09 18.77 2 16.19 2H7.81C4.6 2 2 4.6 2 7.81V16.19C2 18.77 3.09 20.62 5.04 21.46C5.23 21.54 5.45 21.49 5.59 21.35L21.35 5.59C21.5 5.44 21.55 5.22 21.46 5.04ZM10.53 12.24C10.14 12.62 9.63 12.8 9.12 12.8C8.61 12.8 8.1 12.61 7.71 12.24C6.69 11.28 5.57 9.75 6 7.93C6.38 6.28 7.84 5.54 9.12 5.54C10.4 5.54 11.86 6.28 12.24 7.94C12.66 9.75 11.54 11.28 10.53 12.24Z" fill="#969696"/>
<path d="M19.4699 20.5295C19.6899 20.7495 19.6599 21.1095 19.3899 21.2595C18.5099 21.7495 17.4399 21.9995 16.1899 21.9995H7.8099C7.5199 21.9995 7.3999 21.6595 7.5999 21.4595L13.6399 15.4195C13.8399 15.2195 14.1499 15.2195 14.3499 15.4195L19.4699 20.5295Z" fill="#969696"/>
<path d="M22 7.8099V16.1899C22 17.4399 21.75 18.5199 21.26 19.3899C21.11 19.6599 20.75 19.6799 20.53 19.4699L15.41 14.3499C15.21 14.1499 15.21 13.8399 15.41 13.6399L21.45 7.5999C21.66 7.3999 22 7.5199 22 7.8099Z" fill="#969696"/>
</svg>
