<svg width="24" height="24" viewBox="0 0 24 24" fill="none" xmlns="http://www.w3.org/2000/svg">
<path d="M5.79715 13.5325C5.87886 13.5598 5.96318 13.5736 6.04779 13.5736H6.04789C6.23061 13.5736 6.40854 13.5078 6.54875 13.3888C6.85353 13.13 6.99767 12.6918 6.77501 11.3078C6.57795 10.0806 6.2727 9.43791 5.75454 9.15914C5.64111 9.09802 5.52097 9.05723 5.39651 9.03759C5.40045 6.75028 6.18425 4.63655 7.55211 3.23067C8.72051 2.02931 10.2585 1.39463 12 1.39463C13.7415 1.39463 15.2796 2.02931 16.448 3.23067C17.8159 4.63655 18.5997 6.74991 18.6036 9.03759C18.4791 9.05723 18.359 9.09802 18.2456 9.15914C17.7274 9.43791 17.4222 10.0806 17.2251 11.3078C17.1409 11.8319 17.1063 12.2373 17.1196 12.5448C16.7165 12.7606 15.9953 13.0281 14.7961 13.1318C14.6071 12.817 14.2702 12.6234 13.9055 12.6234H13.2137C12.6384 12.6234 12.1704 13.0914 12.1704 13.6668C12.1704 14.2422 12.6384 14.7102 13.2137 14.7102H13.9055C14.3125 14.7102 14.6783 14.4762 14.8498 14.1101C15.9405 14.0195 16.8407 13.7953 17.5268 13.4426C17.655 13.5285 17.8012 13.5736 17.9523 13.5736C18.0375 13.5736 18.122 13.5598 18.2031 13.5325C18.7549 13.3487 19.9187 12.091 19.9937 9.37528C20.0707 6.59447 19.1427 4.00069 17.4477 2.2582C16.0108 0.780984 14.127 0 12 0C9.87312 0 7.98931 0.780984 6.55231 2.2582C4.8574 4.00073 3.92942 6.59447 4.00639 9.37528C4.08148 12.091 5.24525 13.3487 5.79715 13.5325Z" fill="#969696"/>
<path d="M21.2217 21.4237C21.0455 20.456 20.4068 19.6332 19.5102 19.2208L15.7579 17.6875C15.1597 17.4128 14.7731 16.8098 14.7731 16.1514V15.9536C14.7731 15.9023 14.7226 15.8664 14.6742 15.8831C14.4223 15.9705 14.1637 16.0145 13.9056 16.0145H13.2137C11.9194 16.0145 10.8664 14.9617 10.8664 13.6672C10.8664 12.373 11.9194 11.3201 13.2137 11.3201H13.9056C14.3886 11.3201 14.8526 11.4668 15.2475 11.7445C15.2635 11.7557 15.2832 11.7601 15.3024 11.7569C15.8804 11.6616 16.2403 11.5272 16.4538 11.4191C16.5914 11.3493 16.6979 11.2343 16.785 11.107C16.8613 10.9955 16.9212 10.8733 16.9587 10.7435C17.1615 10.0401 17.2642 9.37777 17.2642 8.77224C17.2642 5.27082 15.0503 2.72949 12 2.72949C8.94981 2.72949 6.73599 5.27087 6.73599 8.77224C6.73599 10.892 7.99567 13.1597 8.67677 14.2285C8.94389 14.6477 9.22693 15.1019 9.22693 15.5989V16.1514C9.22693 16.8098 8.84031 17.4124 8.24504 17.6861L4.48707 19.2223C3.59288 19.6332 2.95407 20.4564 2.77749 21.4314C2.6701 22.8169 3.76542 24.0004 5.15511 24.0004H18.8374C20.2312 24.0004 21.3296 22.8133 21.2217 21.4237Z" fill="#969696"/>
</svg>
