<svg width="41" height="41" viewBox="0 0 41 41" fill="none" xmlns="http://www.w3.org/2000/svg">
<circle cx="20.7959" cy="20.7959" r="19.7959" stroke="#F6C668" stroke-width="0.609105" stroke-linecap="round" stroke-linejoin="round"/>
<rect x="4.04547" y="4.04541" width="33.5008" height="33.5008" rx="16.7504" fill="white" fill-opacity="0.25"/>
<path d="M14.07 17.0002C14.9501 15.4742 16.3094 14.2813 17.9368 13.6068C19.5642 12.9322 21.3687 12.8137 23.0703 13.2696C24.772 13.7255 26.2755 14.7303 27.3477 16.1281C28.4199 17.5259 29.0007 19.2385 29 21.0002" stroke="white" stroke-width="1.5" stroke-linecap="round" stroke-linejoin="round"/>
<path d="M27.93 25C27.0499 26.526 25.6906 27.7189 24.0632 28.3934C22.4359 29.068 20.6313 29.1865 18.9297 28.7306C17.228 28.2747 15.7245 27.2699 14.6523 25.8721C13.5801 24.4743 12.9993 22.7616 13 21" stroke="white" stroke-width="1.5" stroke-linecap="round" stroke-linejoin="round"/>
<path d="M14 12V17H19" stroke="#F6C668" stroke-width="1.5" stroke-linecap="round" stroke-linejoin="round"/>
<path d="M28 30V25H23" stroke="white" stroke-width="1.5" stroke-linecap="round" stroke-linejoin="round"/>
</svg>
