<svg width="41" height="41" viewBox="0 0 41 41" fill="none" xmlns="http://www.w3.org/2000/svg">
<circle cx="20.7959" cy="20.7959" r="19.7959" stroke="#ED4738" stroke-width="0.609105" stroke-linecap="round" stroke-linejoin="round"/>
<rect x="4" y="4.04541" width="33.5008" height="33.5008" rx="16.7504" fill="white" fill-opacity="0.25"/>
<g clip-path="url(#clip0_171_5254)">
<path d="M32.9966 24.7275C32.9948 24.6754 32.993 24.623 32.9912 24.5704C32.9893 24.5178 32.9873 24.465 32.9854 24.412L32.9839 24.3724L32.9831 24.3525L32.9829 24.3475L32.9824 24.303L32.9822 24.301L32.9816 24.2927L32.9765 24.2269C32.9697 24.139 32.9628 24.0507 32.956 23.9624L32.9508 23.8956L32.9429 23.809C32.9374 23.7513 32.932 23.6937 32.9266 23.6363C32.9209 23.5789 32.9153 23.5216 32.9097 23.4645C32.9068 23.436 32.9039 23.4075 32.901 23.3791C32.8975 23.3528 32.894 23.3265 32.8905 23.3003C32.8618 23.0921 32.8361 22.8874 32.7994 22.6907C32.7821 22.5923 32.7661 22.4955 32.7481 22.4012C32.7285 22.3071 32.7093 22.2151 32.6906 22.1255C32.6551 21.9461 32.6106 21.7787 32.5732 21.6239C32.5636 21.5852 32.5542 21.5473 32.545 21.5104C32.5348 21.4736 32.5248 21.4377 32.5151 21.4027C32.4953 21.3328 32.4766 21.2665 32.4589 21.2042C32.441 21.142 32.4252 21.0837 32.4087 21.0302C32.3916 20.9769 32.376 20.9278 32.3619 20.8836C32.341 20.8186 32.3233 20.7638 32.3094 20.7205C32.2888 20.6566 32.2213 20.6207 32.1567 20.6391L28.0991 21.7954C28.0373 21.813 27.999 21.8746 28.0108 21.9378C28.0152 21.9614 28.0202 21.9884 28.0258 22.0187C28.0316 22.0491 28.038 22.0829 28.045 22.1196C28.0516 22.1564 28.0567 22.1967 28.0634 22.2393C28.0699 22.282 28.0768 22.3274 28.0841 22.3753C28.0877 22.3992 28.0919 22.4236 28.0952 22.4488C28.0981 22.4741 28.101 22.5 28.1041 22.5264C28.1154 22.6321 28.1322 22.7454 28.1398 22.8669C28.1447 22.9274 28.1499 22.9895 28.1551 23.0529C28.1591 23.1165 28.1611 23.1817 28.1644 23.2477C28.1732 23.3793 28.1716 23.5165 28.1741 23.6548L28.1747 23.7063L28.1729 23.7519C28.1718 23.7823 28.1708 23.8127 28.1697 23.8433C28.1689 23.8736 28.1681 23.9041 28.1672 23.9347L28.1663 23.9803L28.1635 24.0461C28.1598 24.1345 28.156 24.223 28.1522 24.3111L28.1494 24.3771L28.149 24.3853L28.1489 24.3873C28.149 24.3973 28.1482 24.3088 28.1484 24.347L28.1481 24.3502L28.1469 24.3633L28.1445 24.3893C28.1414 24.424 28.1382 24.4585 28.1351 24.4929C28.1321 24.5273 28.1291 24.5615 28.1261 24.5956C28.1221 24.6295 28.1181 24.6632 28.114 24.6967C28.1054 24.7637 28.1001 24.83 28.0895 24.8946C28.0801 24.9592 28.0709 25.0227 28.0619 25.0849C28.0512 25.1467 28.0407 25.2072 28.0304 25.266C28.0212 25.3248 28.0088 25.3815 27.9978 25.4364C27.9863 25.4912 27.9771 25.5443 27.9652 25.5948C27.9535 25.6453 27.9424 25.6936 27.9317 25.7396C27.9265 25.7623 27.9214 25.7844 27.9164 25.8059C27.9113 25.8243 27.9064 25.8422 27.9016 25.8596C27.8987 25.8702 27.896 25.8801 27.8933 25.8904H32.856C32.9225 25.8904 32.9779 25.8382 32.9804 25.7718C32.9804 25.7714 32.9804 25.771 32.9805 25.7706C32.9846 25.6782 32.9888 25.5833 32.9932 25.4863C32.995 25.3894 32.9969 25.2903 32.9988 25.1896C33.0016 25.089 32.9986 24.9868 32.9983 24.8834C32.9977 24.8317 32.9972 24.7798 32.9966 24.7275Z" fill="white"/>
<path d="M31.7062 19.5191C31.7728 19.4923 31.8032 19.4152 31.7725 19.3503C31.7588 19.3215 31.7429 19.2878 31.7248 19.2497C31.7078 19.2138 31.6889 19.1742 31.6685 19.131C31.642 19.077 31.6133 19.0187 31.5827 18.9563C31.5518 18.8942 31.519 18.8281 31.4843 18.7584C31.4668 18.7221 31.4495 18.6923 31.4315 18.6583C31.4135 18.625 31.3951 18.591 31.3762 18.5563C31.3384 18.487 31.2997 18.4145 31.2582 18.3402C31.2154 18.2668 31.171 18.1909 31.1255 18.1128C31.1027 18.0739 31.0795 18.0344 31.056 17.9945C31.0315 17.9552 31.0067 17.9154 30.9816 17.8752C30.9311 17.7951 30.8796 17.7132 30.8272 17.63C30.7166 17.467 30.6065 17.2966 30.4837 17.1308C30.4535 17.089 30.4232 17.0471 30.3928 17.005L30.3471 16.942L30.2995 16.8801C30.2358 16.7976 30.1719 16.7149 30.108 16.6322C30.0429 16.5504 29.9756 16.4703 29.9097 16.39C29.8763 16.3501 29.844 16.3096 29.81 16.2706C29.7758 16.2317 29.7418 16.1929 29.7079 16.1543C29.674 16.1158 29.6402 16.0774 29.6066 16.0392C29.5732 16.0009 29.5395 15.9632 29.5047 15.9268C29.4359 15.8535 29.3679 15.7811 29.3011 15.7099C29.2341 15.6389 29.1648 15.5722 29.0988 15.5055C29.0324 15.4392 28.9678 15.374 28.9019 15.3135C28.8367 15.2525 28.7732 15.1931 28.7119 15.1357C28.6508 15.0781 28.5884 15.0258 28.5303 14.974C28.4717 14.9228 28.4156 14.8737 28.3622 14.827C28.3074 14.7819 28.2554 14.7391 28.2066 14.6988C28.1578 14.6588 28.1121 14.6213 28.0698 14.5866C28.0275 14.5521 27.987 14.5222 27.9513 14.4942C27.8993 14.4544 27.8554 14.4207 27.8205 14.3939C27.7673 14.353 27.6915 14.3618 27.6487 14.4135L25.471 17.0496C25.4299 17.0993 25.4334 17.172 25.4792 17.2173C25.4974 17.2353 25.5185 17.2561 25.5421 17.2796C25.5648 17.3023 25.5907 17.3264 25.6174 17.3546C25.644 17.3827 25.6727 17.4131 25.7035 17.4456C25.7343 17.4779 25.767 17.5124 25.8015 17.5486C25.8348 17.5861 25.8698 17.6255 25.9063 17.6666C25.9423 17.7081 25.9817 17.7493 26.0192 17.7952C26.057 17.8407 26.0961 17.8877 26.1363 17.936C26.1773 17.9834 26.2164 18.0349 26.2568 18.087C26.2969 18.1394 26.3397 18.191 26.3799 18.2464C26.4201 18.3017 26.461 18.3578 26.5024 18.4146C26.5236 18.4426 26.5436 18.4718 26.5633 18.5014C26.5833 18.5308 26.6034 18.5603 26.6235 18.59C26.6436 18.6195 26.6639 18.6491 26.6842 18.6789C26.7045 18.7087 26.723 18.7398 26.7426 18.7702C26.7811 18.8317 26.8209 18.8922 26.8587 18.9541C26.8956 19.0165 26.9324 19.079 26.9691 19.1413L26.9966 19.1877L27.0224 19.2351C27.0397 19.2666 27.0568 19.298 27.0739 19.3293C27.1445 19.4528 27.2041 19.5801 27.2665 19.6998C27.2951 19.7611 27.3231 19.8214 27.3506 19.8805C27.3644 19.9099 27.3779 19.939 27.3914 19.9677C27.4038 19.997 27.4161 20.0258 27.4282 20.0543C27.4526 20.1111 27.4763 20.1664 27.4993 20.2197C27.5205 20.2739 27.5409 20.3262 27.5606 20.3764C27.5704 20.4014 27.58 20.4259 27.5894 20.4499C27.5983 20.4733 27.6094 20.4986 27.6153 20.5181C27.6293 20.559 27.6425 20.5978 27.655 20.6343C27.6678 20.6705 27.6797 20.7044 27.6907 20.7358C27.7052 20.779 27.7185 20.8186 27.7305 20.8544C27.7439 20.8944 27.7556 20.9298 27.7657 20.9601C27.7884 21.0282 27.8638 21.0629 27.9303 21.0361L31.7062 19.5191Z" fill="#ED4738"/>
<path d="M20.6162 14.8103C20.6492 14.8148 20.6857 14.8198 20.7254 14.8252C20.7649 14.8321 20.8077 14.8396 20.8533 14.8475C20.8989 14.8553 20.9474 14.8637 20.9985 14.8724C21.0429 14.8798 21.0889 14.8905 21.1368 14.9005L22.5112 12.0892C22.443 12.0786 22.3755 12.068 22.3092 12.0577C22.2639 12.0509 22.2192 12.0432 22.1747 12.0376C22.1302 12.0322 22.0863 12.0269 22.0429 12.0217C21.9563 12.0114 21.872 12.0013 21.7905 11.9917C21.7088 11.9847 21.6299 11.9779 21.5541 11.9714C21.4783 11.9656 21.4061 11.9579 21.3369 11.9547C21.2678 11.9513 21.2023 11.948 21.1407 11.945C21.0792 11.9421 21.0216 11.9394 20.9685 11.9369C20.9152 11.936 20.8663 11.9352 20.8221 11.9345C20.76 11.9338 20.7072 11.9331 20.6649 11.9326C20.5979 11.9318 20.5424 11.9842 20.5392 12.0512L20.4138 14.6679C20.4107 14.7324 20.4573 14.7885 20.5212 14.7973C20.5484 14.801 20.5802 14.8054 20.6162 14.8103Z" fill="white"/>
<path d="M24.3101 16.2516C24.3471 16.2784 24.3821 16.3039 24.415 16.3279C24.4479 16.3515 24.4788 16.3736 24.5073 16.394C24.5196 16.4025 24.54 16.4179 24.5567 16.4303C24.5738 16.4431 24.5902 16.4553 24.6057 16.4669C24.6395 16.4921 24.6693 16.5144 24.6949 16.5335C24.7524 16.5764 24.834 16.5619 24.8734 16.5019L26.6678 13.7685C26.7072 13.7086 26.6881 13.6279 26.6259 13.5922C26.5982 13.5763 26.5659 13.5578 26.5293 13.5368C26.5125 13.5272 26.4948 13.517 26.4762 13.5064C26.456 13.4949 26.4348 13.4829 26.4128 13.4705C26.3617 13.4423 26.3065 13.4119 26.2475 13.3794C26.1885 13.3473 26.1257 13.3131 26.0595 13.277C25.9964 13.2454 25.9301 13.2121 25.8609 13.1774C25.7914 13.1435 25.7205 13.1058 25.6445 13.0716C25.5689 13.0369 25.4906 13.0011 25.4103 12.9642C25.3304 12.9265 25.2461 12.8923 25.1606 12.8564C25.0747 12.8212 24.9883 12.7828 24.898 12.7488C24.8751 12.7402 24.8519 12.7314 24.8289 12.7227L24.0548 16.0826C24.0976 16.1095 24.1379 16.138 24.1776 16.1637C24.2238 16.1943 24.268 16.2237 24.3101 16.2516Z" fill="white"/>
<path d="M18.2067 14.797C18.2414 14.7924 18.2754 14.7867 18.3094 14.7832C18.3434 14.7797 18.377 14.7763 18.4101 14.7729C18.4761 14.7661 18.5404 14.7594 18.6025 14.7529C18.6649 14.7488 18.7251 14.7447 18.783 14.7408C18.8118 14.7389 18.8401 14.7369 18.8677 14.7351C18.8952 14.7332 18.9228 14.7309 18.9464 14.7308C18.9952 14.7295 19.0414 14.7284 19.0849 14.7272C19.1282 14.7259 19.1686 14.7246 19.2061 14.7234C19.2523 14.7231 19.2948 14.7228 19.3331 14.7225C19.3753 14.7223 19.4125 14.7221 19.4444 14.7219C19.5162 14.7216 19.5726 14.6608 19.5679 14.5892L19.4063 12.1243C19.4016 12.0527 19.3378 11.9998 19.2666 12.0088C19.235 12.0128 19.198 12.0175 19.1561 12.0228C19.1173 12.0277 19.0744 12.0332 19.0276 12.0391C18.9723 12.0473 18.9125 12.0562 18.8486 12.0657C18.785 12.0754 18.7172 12.0857 18.6457 12.0966C18.6091 12.1017 18.5754 12.1086 18.5401 12.1152C18.5048 12.122 18.4688 12.1289 18.432 12.1359C18.3585 12.1501 18.282 12.1649 18.2027 12.1802C18.1241 12.1981 18.0427 12.2166 17.9591 12.2357C17.9174 12.2452 17.8751 12.255 17.8323 12.2648C17.7896 12.2748 17.7467 12.2871 17.7032 12.2983C17.6164 12.3214 17.5278 12.345 17.4377 12.369C17.3485 12.3959 17.2578 12.4233 17.1659 12.451C17.1202 12.4651 17.0739 12.4785 17.0279 12.4936C16.9822 12.5093 16.9361 12.525 16.8898 12.5408C16.8437 12.5566 16.7973 12.5724 16.7509 12.5884C16.7044 12.6042 16.6578 12.6201 16.6119 12.6382C16.5198 12.6733 16.4274 12.7086 16.3349 12.7439C16.2429 12.7799 16.1524 12.8199 16.0617 12.8576C16.0165 12.8769 15.9711 12.8955 15.9264 12.9153C15.882 12.9358 15.8378 12.9562 15.7937 12.9765C15.7497 12.9969 15.7059 13.0172 15.6623 13.0374C15.6187 13.0576 15.5753 13.0774 15.5331 13.0993C15.4485 13.1421 15.3648 13.1843 15.2826 13.2258C15.2003 13.2671 15.1219 13.3126 15.044 13.3545C14.9664 13.3972 14.8902 13.4379 14.8183 13.4818C14.7459 13.5247 14.6756 13.5665 14.6075 13.6069C14.5393 13.6467 14.476 13.6897 14.4139 13.7285C14.3523 13.768 14.2933 13.8059 14.2371 13.8419C14.1821 13.8796 14.13 13.9154 14.081 13.949C14.0322 13.9826 13.9864 14.0141 13.9441 14.0432C13.9019 14.0724 13.8645 14.1013 13.8301 14.1262C13.7834 14.1607 13.7436 14.1901 13.7114 14.2139C13.6575 14.2536 13.6449 14.3287 13.6825 14.384L14.7061 15.8888C14.7425 15.9424 14.8137 15.9592 14.8701 15.9273C14.8961 15.9127 14.9269 15.8953 14.9619 15.8756C14.9924 15.8587 15.0255 15.8387 15.0628 15.8193C15.1001 15.7998 15.1404 15.7789 15.1835 15.7564C15.2264 15.734 15.2721 15.7101 15.3203 15.6849C15.3693 15.6614 15.4208 15.6367 15.4746 15.6109C15.5286 15.5858 15.5834 15.5569 15.6425 15.5318C15.7011 15.5061 15.7618 15.4795 15.8241 15.4521C15.8858 15.4237 15.9512 15.3988 16.0174 15.3723C16.0839 15.3465 16.1504 15.3174 16.2202 15.2928C16.2896 15.2677 16.3603 15.2423 16.4318 15.2165C16.4672 15.2031 16.5037 15.1917 16.5402 15.18C16.5767 15.1682 16.6134 15.1564 16.6502 15.1446C16.6869 15.1327 16.7238 15.1208 16.7608 15.1088C16.798 15.0975 16.8357 15.0874 16.8732 15.0766C16.9484 15.0558 17.0232 15.0327 17.099 15.0134C17.1748 14.9946 17.2507 14.9758 17.3262 14.9571C17.3637 14.9472 17.4017 14.9394 17.4396 14.9315C17.4774 14.9236 17.5151 14.9157 17.5526 14.9078C17.5901 14.8998 17.6274 14.8919 17.6645 14.884C17.7018 14.8766 17.7392 14.8708 17.7761 14.8642C17.8499 14.8514 17.9228 14.8387 17.9946 14.8263C18.0666 14.8163 18.1374 14.8065 18.2067 14.797Z" fill="white"/>
<path d="M11.2276 16.7423C11.2007 16.7802 11.1738 16.8183 11.1468 16.8566C11.1198 16.8949 11.0927 16.9333 11.0655 16.9718C11.0385 17.0104 11.0131 17.0504 10.9868 17.0897C10.9349 17.169 10.8818 17.2476 10.831 17.3278C10.7814 17.4086 10.7317 17.4894 10.6823 17.5699L10.6454 17.6302L10.6104 17.6915C10.5871 17.7322 10.5639 17.7728 10.5408 17.8133C10.4463 17.9738 10.3642 18.1378 10.2808 18.2937C10.242 18.3731 10.2038 18.4512 10.1664 18.5277C10.1479 18.5659 10.1295 18.6038 10.1114 18.6411C10.0943 18.679 10.0775 18.7164 10.0609 18.7533C10.0278 18.827 9.9956 18.8988 9.96445 18.9682C9.93539 19.0384 9.9073 19.1063 9.88035 19.1714C9.85392 19.2367 9.82722 19.2985 9.80446 19.3585C9.782 19.4186 9.76067 19.4756 9.74062 19.5291C9.72066 19.5826 9.70199 19.6326 9.68473 19.6789C9.66879 19.7257 9.65417 19.7686 9.64093 19.8074C9.62375 19.8584 9.60899 19.9021 9.59694 19.9379C9.5756 20.0012 9.60806 20.0699 9.67046 20.0939L10.6231 20.4591C10.6838 20.4823 10.752 20.4552 10.7801 20.3966C10.794 20.3676 10.8106 20.3329 10.8296 20.293C10.8454 20.2601 10.8629 20.2237 10.882 20.1841C10.9023 20.145 10.9242 20.1028 10.9476 20.0577C10.9709 20.0127 10.9957 19.9647 11.0219 19.9142C11.0483 19.8638 11.0787 19.8121 11.1088 19.7576C11.1393 19.7033 11.1711 19.6467 11.204 19.5882C11.2387 19.5307 11.2746 19.4713 11.3115 19.4102C11.3298 19.3797 11.3484 19.3488 11.3673 19.3176C11.3871 19.2869 11.4072 19.2559 11.4275 19.2244C11.4681 19.1617 11.5095 19.0978 11.5517 19.0327C11.6413 18.9058 11.7289 18.7723 11.8279 18.6434C11.8521 18.6109 11.8763 18.5782 11.9007 18.5455L11.9372 18.4963L11.9754 18.4482C12.0264 18.384 12.0775 18.3197 12.1286 18.2553C12.1807 18.1918 12.2347 18.1298 12.2873 18.0674C12.3139 18.0364 12.3395 18.0048 12.3667 17.9746C12.394 17.9445 12.4212 17.9145 12.4483 17.8846C12.4753 17.8548 12.5022 17.825 12.529 17.7954C12.5555 17.7657 12.5823 17.7365 12.6101 17.7084C12.6648 17.6518 12.7189 17.5958 12.7721 17.5407C12.8251 17.4857 12.8805 17.4347 12.9328 17.3831C12.9855 17.3319 13.0365 17.2813 13.089 17.235C13.1407 17.188 13.1909 17.1423 13.2395 17.0981C13.2877 17.0536 13.3373 17.0139 13.3832 16.974C13.4294 16.9347 13.4737 16.897 13.5158 16.8612C13.5571 16.8284 13.5963 16.7974 13.6331 16.7682C13.6698 16.7391 13.704 16.7118 13.7357 16.6865C13.7503 16.6745 13.77 16.6601 13.7867 16.6474C13.8037 16.6345 13.82 16.6222 13.8355 16.6106C13.8692 16.5851 13.8989 16.5627 13.9244 16.5435C13.9816 16.5003 13.9905 16.4179 13.9439 16.3633L12.8592 15.0926C12.8127 15.038 12.7299 15.0339 12.6782 15.0836C12.6552 15.1058 12.6284 15.1316 12.598 15.1609C12.5841 15.1743 12.5694 15.1885 12.554 15.2033C12.5383 15.2185 12.5233 15.2324 12.5039 15.2523C12.4667 15.2898 12.4265 15.3304 12.3835 15.3737C12.3408 15.4171 12.2953 15.4633 12.2473 15.5119C12.2027 15.5602 12.1558 15.611 12.1069 15.664C12.0586 15.7174 12.0065 15.7712 11.9561 15.8301C11.9055 15.8888 11.8532 15.9494 11.7995 16.0118C11.745 16.0734 11.6923 16.1395 11.6382 16.2066C11.5844 16.2741 11.5277 16.3414 11.4736 16.4128C11.4197 16.4841 11.3648 16.5567 11.3094 16.6301C11.2812 16.6665 11.2542 16.7041 11.2276 16.7423Z" fill="white"/>
<path d="M9.25655 21.1978C9.25021 21.229 9.24278 21.2656 9.23437 21.3069C9.22666 21.3449 9.21812 21.3869 9.20882 21.4327C9.1997 21.4794 9.19079 21.5347 9.18083 21.5911C9.17103 21.648 9.16062 21.7086 9.14966 21.7725C9.14435 21.8043 9.13829 21.8372 9.13326 21.8704C9.12879 21.9033 9.12424 21.937 9.11957 21.9714C9.10179 22.1092 9.07837 22.2574 9.06488 22.4157C9.05704 22.4946 9.04901 22.5757 9.0408 22.6585C9.03403 22.7414 9.02951 22.8264 9.02367 22.9125C9.01003 23.0845 9.00753 23.263 9.00184 23.4435L9 23.5114L9.00033 23.5795C9.00058 23.625 9.00083 23.6706 9.00109 23.7163C9.00136 23.7619 9.00164 23.8077 9.00189 23.8534L9.00232 23.9221L9.00495 23.9907C9.00867 24.0821 9.01238 24.1735 9.01609 24.2646L9.0189 24.3327L9.01976 24.3547L9.02097 24.3712L9.02339 24.404C9.02663 24.4477 9.02984 24.4914 9.03304 24.5348C9.03625 24.5783 9.03946 24.6216 9.04262 24.6647C9.04699 24.7096 9.05131 24.7543 9.05565 24.7988C9.06003 24.8432 9.06437 24.8873 9.06869 24.9312C9.07086 24.953 9.07304 24.9748 9.07521 24.9965C9.07791 25.0179 9.08061 25.0392 9.08329 25.0604C9.09405 25.1451 9.10464 25.2283 9.115 25.3098C9.1275 25.3909 9.13973 25.4703 9.1516 25.5476C9.16272 25.6248 9.17704 25.6995 9.19021 25.7717C9.19129 25.7775 9.19238 25.7832 9.19344 25.789C9.20443 25.848 9.25581 25.8908 9.31586 25.8908H9.65164C9.72333 25.8908 9.78023 25.8305 9.77601 25.7589C9.77487 25.7398 9.77371 25.7205 9.77242 25.701C9.76823 25.6314 9.76317 25.5596 9.76156 25.4855C9.75913 25.4115 9.75666 25.3355 9.7541 25.2579C9.75362 25.1803 9.75314 25.101 9.75266 25.0203C9.75254 25.0002 9.75241 24.9799 9.75228 24.9597C9.75271 24.9397 9.75317 24.9196 9.75362 24.8994C9.75451 24.8592 9.75539 24.8187 9.7563 24.7779C9.75719 24.7372 9.7581 24.6962 9.759 24.655C9.76103 24.6118 9.76302 24.5685 9.76507 24.525C9.76709 24.4814 9.76914 24.4377 9.77116 24.3939L9.7727 24.361L9.77346 24.3445L9.77356 24.3424C9.77356 24.3372 9.77366 24.3473 9.77371 24.3455L9.77401 24.3415L9.77464 24.3336L9.77975 24.2699C9.78652 24.1849 9.79331 24.0996 9.80013 24.0143L9.80534 23.9504L9.81269 23.8868C9.81759 23.8444 9.82247 23.802 9.82734 23.7598C9.83219 23.7175 9.83704 23.6754 9.84187 23.6334L9.84907 23.5705L9.85839 23.5081C9.88396 23.3421 9.90568 23.1789 9.93751 23.0225C9.95244 22.9442 9.96581 22.8672 9.98114 22.7922C9.99784 22.7175 10.0142 22.6444 10.0301 22.5732C10.0595 22.4307 10.0976 22.2982 10.1286 22.1754C10.1366 22.1448 10.1443 22.1148 10.1519 22.0854C10.16 22.0566 10.1686 22.0292 10.1766 22.0022C10.1927 21.9483 10.208 21.8972 10.2224 21.8491C10.237 21.8006 10.2491 21.7573 10.2631 21.7138C10.2779 21.6695 10.2913 21.6288 10.3036 21.5921C10.3169 21.552 10.3286 21.5166 10.3387 21.4863C10.3613 21.4183 10.3218 21.3453 10.2525 21.3269L9.41073 21.1024C9.34138 21.0839 9.27085 21.1275 9.25655 21.1978Z" fill="white"/>
<path d="M18.7848 25.5605C19.0587 25.6944 19.3488 25.7578 19.6344 25.7578C20.3513 25.7578 21.0403 25.3584 21.3763 24.671C21.4411 24.5386 21.4912 24.3925 21.5238 24.2549L23.4836 15.7484L24.23 12.5089L24.6924 10.502C24.7462 10.2685 24.5604 10.1094 24.374 10.1094C24.2649 10.1094 24.1555 10.1639 24.0939 10.29L23.153 12.2146L21.7649 15.0538L17.8952 22.969C17.4253 23.9303 17.8236 25.0906 18.7848 25.5605ZM19.7062 22.8211C20.2307 22.8211 20.6558 23.2463 20.6558 23.7707C20.6558 24.2951 20.2307 24.7203 19.7062 24.7203C19.1818 24.7203 18.7566 24.2951 18.7566 23.7707C18.7566 23.2462 19.1818 22.8211 19.7062 22.8211Z" fill="white"/>
</g>
<defs>
<clipPath id="clip0_171_5254">
<rect width="24" height="24" fill="white" transform="translate(9 6)"/>
</clipPath>
</defs>
</svg>
