<svg width="41" height="41" viewBox="0 0 41 41" fill="none" xmlns="http://www.w3.org/2000/svg">
<circle cx="20.7959" cy="20.7959" r="19.7959" stroke="#AEEE52" stroke-width="0.609105" stroke-linecap="round" stroke-linejoin="round"/>
<rect x="4" y="4.04541" width="33.5008" height="33.5008" rx="16.7504" fill="white" fill-opacity="0.25"/>
<path d="M27.2144 12.5713C27.4221 12.5713 27.6151 12.6715 27.7349 12.8369L27.7816 12.9116L31.2159 19.3511L31.2527 19.4389L31.2627 19.4713L31.2772 19.5375L31.2852 19.613L31.2834 19.6982L31.2858 19.6427C31.2858 19.7328 31.2673 19.8186 31.2338 19.8965L31.2091 19.9476L31.1743 20.0047L31.1291 20.0634L21.5143 31.1753C21.4285 31.2905 21.311 31.3665 21.1833 31.403L21.1336 31.4151L21.0501 31.4266L20.9999 31.4284L20.9137 31.4226L20.8407 31.4088L20.7522 31.3797L20.7302 31.3693C20.6528 31.3351 20.5816 31.2841 20.5221 31.2171L10.8607 20.051L10.8075 19.9759L10.7664 19.8961L10.7367 19.811L10.7168 19.6986L10.7166 19.5894L10.7293 19.5048L10.7375 19.4712L10.7666 19.3888L10.79 19.3402L14.2186 12.9116C14.3164 12.7283 14.4956 12.6052 14.6979 12.5773L14.7858 12.5713H27.2144ZM24.3481 20.2856H17.6495L21.0009 28.9941L24.3481 20.2856ZM16.273 20.2856H12.7621L19.0818 27.5867L16.273 20.2856ZM29.2355 20.2856H25.7272L22.9218 27.5807L29.2355 20.2856ZM17.5921 13.8561H15.1707L12.427 18.9999H16.2198L17.5921 13.8561ZM23.0769 13.8561H18.9224L17.5501 18.9999H24.4484L23.0769 13.8561ZM26.8287 13.8561H24.4072L25.7795 18.9999H29.5707L26.8287 13.8561Z" fill="white"/>
</svg>
